<?xml version="1.0" standalone="no"?>
<!DOCTYPE svg PUBLIC "-//W3C//DTD SVG 20010904//EN"
 "http://www.w3.org/TR/2001/REC-SVG-20010904/DTD/svg10.dtd">
<svg version="1.0" xmlns="http://www.w3.org/2000/svg"
 width="325.000000pt" height="325.000000pt" viewBox="0 0 325.000000 325.000000"
 preserveAspectRatio="xMidYMid meet">
<metadata>
Created by potrace 1.13, written by Peter Selinger 2001-2015
</metadata>
<g transform="translate(0.000000,325.000000) scale(0.100000,-0.100000)"
fill="#000000" stroke="none">
<path d="M1130 2636 c0 -10 -4 -15 -8 -12 -4 2 -9 -4 -9 -16 -1 -12 20 -42 58
-79 33 -32 56 -59 52 -59 -4 0 2 -6 12 -14 11 -8 23 -12 27 -10 4 3 5 -1 3 -9
-3 -7 5 -19 20 -27 14 -7 25 -22 25 -32 0 -10 3 -17 8 -17 18 3 33 -2 28 -9
-3 -5 6 -15 20 -22 18 -10 21 -16 12 -22 -11 -6 -10 -8 0 -8 18 0 93 -76 84
-85 -4 -5 -2 -5 4 -2 13 8 37 -16 27 -26 -3 -4 -1 -7 6 -7 15 0 91 -77 91 -91
0 -5 5 -9 11 -9 5 0 7 -4 4 -10 -3 -6 1 -7 9 -4 11 4 16 0 16 -10 0 -9 7 -16
16 -16 8 0 13 -3 11 -7 -6 -11 50 -62 59 -54 4 3 4 -3 0 -14 -4 -11 -4 -16 0
-13 3 4 28 -15 54 -42 26 -27 51 -46 55 -42 4 4 6 3 5 -3 -5 -21 0 -36 10 -30
6 3 10 -2 10 -11 0 -10 3 -15 6 -11 8 8 54 -34 54 -50 0 -7 7 -13 16 -13 8 0
13 -4 10 -9 -3 -5 1 -12 10 -15 8 -3 12 -11 8 -17 -4 -8 1 -9 16 -4 16 5 20 4
15 -4 -4 -7 -1 -18 5 -26 10 -12 9 -15 -3 -15 -9 0 -19 -5 -23 -12 -5 -7 -2
-8 7 -3 8 5 3 -4 -11 -19 -13 -14 -29 -25 -36 -22 -6 2 -11 -3 -10 -12 0 -9
-10 -22 -24 -29 -14 -7 -21 -13 -15 -13 5 0 -6 -14 -25 -32 -19 -18 -39 -31
-43 -30 -5 1 -6 -2 -3 -7 8 -12 -18 -33 -29 -23 -5 4 -5 2 -1 -5 3 -6 -2 -16
-11 -22 -10 -6 -14 -11 -10 -11 4 0 2 -6 -5 -14 -7 -7 -19 -11 -27 -8 -9 3
-12 1 -7 -6 4 -7 1 -15 -8 -18 -9 -3 -16 -10 -16 -15 0 -13 -77 -88 -84 -82
-3 4 -6 1 -6 -6 0 -14 -87 -101 -101 -101 -5 0 -5 -7 -2 -17 4 -10 2 -14 -4
-10 -6 4 -14 0 -17 -9 -3 -9 -11 -12 -18 -8 -7 4 -10 4 -6 -1 11 -11 -12 -36
-25 -28 -7 4 -8 0 -4 -11 6 -14 3 -17 -8 -12 -9 3 -14 2 -10 -3 3 -5 -6 -18
-20 -29 -13 -11 -21 -22 -18 -26 3 -3 -1 -6 -11 -6 -9 0 -15 -4 -11 -9 3 -5
-4 -12 -15 -16 -11 -3 -20 -9 -20 -13 0 -13 -47 -62 -59 -62 -7 0 -9 -4 -6
-10 3 -5 -1 -10 -10 -10 -9 0 -14 -4 -11 -8 3 -5 -4 -15 -15 -22 -10 -8 -19
-20 -19 -27 0 -7 -7 -10 -15 -6 -9 3 -15 1 -13 -4 2 -5 -10 -21 -26 -36 -16
-15 -25 -27 -20 -27 5 0 2 -5 -6 -10 -11 -7 -11 -10 -2 -10 7 0 11 -3 8 -8 -2
-4 3 -16 11 -27 13 -17 15 -17 10 -2 -4 11 -2 17 6 16 24 -3 37 1 37 12 0 15
47 59 62 59 6 0 9 3 5 6 -7 7 61 74 76 74 7 0 6 4 -3 10 -8 5 -10 10 -4 10 15
0 104 86 104 100 0 6 4 9 9 5 5 -3 13 4 16 16 4 11 9 18 12 15 7 -7 33 20 33
34 0 6 5 8 10 5 6 -3 10 0 10 7 0 16 36 49 44 41 3 -4 6 1 6 11 0 11 4 14 12
10 8 -5 9 -2 5 9 -3 10 -2 17 3 17 13 0 148 138 142 145 -5 5 14 9 30 6 5 0 7
2 7 7 -3 18 2 35 8 29 3 -4 13 2 20 13 8 11 19 18 24 14 5 -3 9 -2 8 3 -4 21
2 33 16 33 8 0 15 5 15 10 0 13 37 50 51 50 5 0 7 5 4 10 -3 6 1 10 9 10 9 0
15 3 14 8 -4 11 89 101 97 94 4 -4 5 -2 4 3 -2 6 8 22 22 37 28 30 30 84 3 74
-8 -3 -13 -2 -12 2 3 14 -14 42 -23 36 -5 -3 -9 -1 -9 3 0 12 -150 170 -150
158 0 -5 -6 1 -13 15 -8 14 -19 24 -25 23 -7 -2 -12 6 -12 18 0 11 -4 17 -10
14 -5 -3 -10 -1 -10 5 0 6 -5 8 -12 4 -7 -4 -8 -3 -4 4 4 6 -5 19 -19 28 -14
9 -25 23 -25 32 0 8 -3 13 -6 10 -5 -6 -54 38 -54 48 0 9 -28 34 -39 34 -5 0
-13 9 -16 20 -4 11 -17 28 -31 36 -13 9 -21 21 -17 27 3 5 2 8 -3 5 -12 -7
-75 58 -66 68 4 4 2 4 -4 1 -12 -7 -46 28 -36 38 4 4 0 5 -8 3 -9 -2 -16 6
-18 21 -3 16 -6 20 -11 12 -6 -9 -11 -7 -22 5 -12 15 -12 17 0 9 10 -5 12 -4
7 3 -4 7 -14 12 -22 12 -8 0 -14 4 -14 9 0 4 -47 55 -104 113 -58 58 -102 110
-98 114 4 5 3 6 -2 2 -5 -4 -15 -3 -23 3 -10 9 -13 8 -13 -5z"/>
</g>
</svg>
