<?xml version="1.0" ?><!DOCTYPE svg  PUBLIC '-//W3C//DTD SVG 1.1//EN'  'http://www.w3.org/Graphics/SVG/1.1/DTD/svg11.dtd'><svg enable-background="new 0 0 128 128" id="Слой_1" version="1.1" viewBox="0 0 128 128" xml:space="preserve" xmlns="http://www.w3.org/2000/svg" xmlns:xlink="http://www.w3.org/1999/xlink"><g><g><circle cx="86.5" cy="82" fill="#E3725D" r="37.5"/></g><g><circle cx="64" cy="44.5" fill="#F9E373" r="37.5"/></g><g><circle cx="41.5" cy="83.5" fill="#65C1C2" r="37.5"/></g><g><circle cx="41.5" cy="83.5" fill="#65C1C2" r="37.5"/></g><g opacity="0.5"><circle cx="64" cy="44.5" fill="#F9E373" r="37.5"/></g><g opacity="0.5"><circle cx="86.5" cy="82" fill="#E3725D" r="37.5"/></g><g><path d="M41.5,122C20.3,122,3,104.7,3,83.5S20.3,45,41.5,45S80,62.3,80,83.5S62.7,122,41.5,122z M41.5,47    C21.4,47,5,63.4,5,83.5S21.4,120,41.5,120S78,103.6,78,83.5S61.6,47,41.5,47z" fill="#2D2E2D"/></g><g><path d="M64,83c-21.2,0-38.5-17.3-38.5-38.5S42.8,6,64,6s38.5,17.3,38.5,38.5S85.2,83,64,83z M64,8    C43.9,8,27.5,24.4,27.5,44.5S43.9,81,64,81s36.5-16.4,36.5-36.5S84.1,8,64,8z" fill="#2D2E2D"/></g><g><path d="M86.5,120.5C65.3,120.5,48,103.2,48,82s17.3-38.5,38.5-38.5S125,60.8,125,82S107.7,120.5,86.5,120.5z     M86.5,45.5C66.4,45.5,50,61.9,50,82s16.4,36.5,36.5,36.5S123,102.1,123,82S106.6,45.5,86.5,45.5z" fill="#2D2E2D"/></g></g></svg>