<?xml version="1.0"?>
<svg width="128" height="128" xmlns="http://www.w3.org/2000/svg">
 <g>
  <title>Layer 1</title>
  <path fill="#ffffff" id="svg_3" d="m64.045998,114.174004c-27.641998,0 -50.128998,-22.488007 -50.128998,-50.129005s22.487,-50.127998 50.128998,-50.127998c27.639999,0 50.126999,22.487 50.126999,50.127998s-22.487,50.129005 -50.126999,50.129005zm0,-96.257004c-25.435997,0 -46.128998,20.693001 -46.128998,46.127998c0,25.436005 20.693001,46.129005 46.128998,46.129005c25.435005,0 46.126999,-20.693001 46.126999,-46.129005c0,-25.434998 -20.692993,-46.127998 -46.126999,-46.127998z"/>
  <g id="svg_4">
   <path fill="#ffffff" id="svg_5" d="m64.043999,66.987999l-17.001999,-17c-0.780998,-0.781998 -0.780998,-2.048 0,-2.828999c0.781002,-0.781002 2.047001,-0.781002 2.827999,0l14.174,14.173l12.761002,-12.757999l-14.174999,-14.173c-0.781002,-0.781002 -0.781002,-2.047001 0,-2.829c0.780998,-0.781 2.047001,-0.781 2.827999,0l17.004997,17.001001l-18.418999,18.414997z"/>
   <path fill="#ffffff" id="svg_6" d="m64.043999,97.103996c-0.511997,0 -1.022999,-0.195 -1.413998,-0.585999c-0.781002,-0.779999 -0.781002,-2.047997 0,-2.828995l14.175999,-14.174004l-12.762001,-12.757996l-14.174,14.173996c-0.780998,0.779999 -2.046997,0.779999 -2.827999,-0.000999s-0.780998,-2.047997 0,-2.828003l17.001999,-17.001999l18.417999,18.416l-17.003998,17.003998c-0.390999,0.389 -0.902,0.584 -1.414001,0.584z"/>
   <path fill="#ffffff" id="svg_7" d="m64.043999,97.103996c-1.104,0 -2,-0.895996 -2,-2v-62.117996c0,-1.104 0.896,-2 2,-2s2,0.896 2,2v62.117996c0,1.105003 -0.895996,2 -2,2z"/>
  </g>
 </g>
</svg>