<?xml version="1.0" ?><svg baseProfile="tiny" height="111.446px" id="Layer_1" version="1.2" viewBox="0 0 196.146 111.446" width="196.146px" xml:space="preserve" xmlns="http://www.w3.org/2000/svg" xmlns:xlink="http://www.w3.org/1999/xlink"><path d="M196.146,107.714c0,0.144-0.309,0.421-0.816,0.774H0.477c-0.309-0.236-0.482-0.446-0.477-0.619v-6.033  l195.992-0.155C195.992,101.681,196.146,107.132,196.146,107.714z" fill="#BCBEC0"/><path d="M77.781,101.684h43.238l-1.023,2.122c-0.297,0.616-1.092,1.114-1.775,1.114l-37.537,0.019  c-0.684,0.001-1.49-0.493-1.801-1.102L77.781,101.684z" fill="#808285"/><path d="M173.476,5.371v96.385H22.795V5.371C22.888,1.665,25.313,0.1,28.42,0.1h139.437  c0.148,0,0.297,0.006,0.445,0.019C171.199,0.328,173.476,2.604,173.476,5.371z" fill="#353C42"/><rect fill="#E7C500" height="84.36" width="134.361" x="30.566" y="8.604"/><path d="M195.33,108.488c-1.609,1.113-5.197,2.908-7.227,2.938c-0.811,0.081-180.574-0.104-180.833-0.154  c-1.108-0.086-5.358-1.677-6.794-2.783H195.33z" fill="#A7A9AC"/><circle cx="97.686" cy="4.459" fill="#D1D3D4" r="0.928"/><rect fill="#FFFFFF" height="84.391" width="104.389" x="45.587" y="8.604"/><rect fill="#00ACB2" height="5.15" width="104.389" x="45.587" y="24.813"/><rect fill="#A7A9AC" height="3.343" width="43.746" x="53.175" y="37.691"/><rect fill="#D1D3D4" height="3.344" width="62.701" x="53.07" y="46.835"/><rect fill="#D1D3D4" height="3.344" width="62.683" x="53.07" y="56.449"/><rect fill="#D1D3D4" height="3.344" width="88.978" x="53.07" y="75.259"/><rect fill="#D1D3D4" height="3.344" width="88.978" x="53.07" y="65.646"/><rect fill="#14C5CC" height="8.07" width="104.4" x="45.557" y="84.894"/><rect fill="#A7A9AC" height="22.022" width="20.113" x="121.781" y="37.639"/><linearGradient gradientUnits="userSpaceOnUse" id="SVGID_1_" x1="129.8657" x2="129.8657" y1="97.6582" y2="4.882813e-004"><stop offset="0" style="stop-color:#FFFFFF;stop-opacity:0"/><stop offset="0.9305" style="stop-color:#FFFFFF;stop-opacity:0.2"/></linearGradient><path d="M173.476,5.371v20.715l-0.068,71.375l-87.152,0.197L139.412,0.1l0.057-0.1l24.75,0.1l4.084,0.019  C171.199,0.328,173.476,2.604,173.476,5.371z" fill="url(#SVGID_1_)"/></svg>