<?xml version="1.0" ?><!DOCTYPE svg  PUBLIC '-//W3C//DTD SVG 1.1//EN'  'http://www.w3.org/Graphics/SVG/1.1/DTD/svg11.dtd'><svg enable-background="new 0 0 128 128" id="Слой_1" version="1.1" viewBox="0 0 128 128" xml:space="preserve" xmlns="http://www.w3.org/2000/svg" xmlns:xlink="http://www.w3.org/1999/xlink"><g><g><path d="M61.8,125.5c-17.2,0-31.3-14-31.3-31.3V48.6h3v45.6c0,15.6,12.7,28.3,28.3,28.3s28.3-12.7,28.3-28.3V80.2    h3v14.1C93.1,111.5,79.1,125.5,61.8,125.5z" fill="#222D2B"/></g><g><path d="M91.5,75C73.6,75,59,60.5,59,42.5V18.6c0-6.9,5.6-12.5,12.5-12.5v5c-4.1,0-7.5,3.4-7.5,7.5v23.9    C64,57.7,76.3,70,91.5,70c15.2,0,27.5-12.3,27.5-27.5V18.6c0-4.1-3.4-7.5-7.5-7.5v-5c6.9,0,12.5,5.6,12.5,12.5v23.9    C124,60.5,109.4,75,91.5,75z" fill="#C9CCCA"/></g><g><path d="M91.5,76.3c-18.6,0-33.8-15.1-33.8-33.8V18.6c0-7.6,6.2-13.8,13.8-13.8h1.2v7.5h-1.2    c-3.4,0-6.2,2.8-6.2,6.2v23.9C65.2,57,77,68.8,91.5,68.8s26.2-11.8,26.2-26.2V18.6c0-3.4-2.8-6.2-6.2-6.2h-1.2V4.9h1.2    c7.6,0,13.8,6.2,13.8,13.8v23.9C125.2,61.1,110.1,76.3,91.5,76.3z M70.2,7.5c-5.6,0.6-10,5.4-10,11.2v23.9    c0,17.2,14,31.2,31.2,31.2s31.2-14,31.2-31.2V18.6c0-5.8-4.4-10.6-10-11.2V10c4.2,0.6,7.5,4.3,7.5,8.7v23.9    c0,15.9-12.9,28.8-28.8,28.8S62.8,58.4,62.8,42.5V18.6c0-4.4,3.3-8.1,7.5-8.7V7.5z" fill="#222D2B"/></g><g><path d="M91.5,61.3c-15.9,0-28.8-12.9-28.8-28.8h2.5C65.2,47,77,58.8,91.5,58.8s26.2-11.8,26.2-26.2h2.5    C120.2,48.4,107.4,61.3,91.5,61.3z" fill="#222D2B"/></g><g><path d="M74.3,12.8L71,11.1v-5l3.3-1.6C77.3,3,81,5.2,81,8.6v0C81,12.1,77.3,14.3,74.3,12.8z" fill="#7E827E"/></g><g opacity="0.4"><path d="M74.3,12.8L71,11.1v-5l3.3-1.6C77.3,3,81,5.2,81,8.6v0C81,12.1,77.3,14.3,74.3,12.8z" fill="#030505"/></g><g><path d="M76.3,14.5c-0.9,0-1.8-0.2-2.6-0.6l-4-2V5.4l4-2c0.8-0.4,1.7-0.6,2.6-0.6c3.2,0,5.9,2.6,5.9,5.9    S79.6,14.5,76.3,14.5z M72.2,10.4l2.6,1.3c0.5,0.2,1,0.4,1.5,0.4c1.6,0,3.4-1.3,3.4-3.4S78,5.2,76.3,5.2c-0.5,0-1,0.1-1.5,0.4    l-2.6,1.3V10.4z" fill="#222D2B"/></g><g><path d="M108.1,12.8l3.3-1.6v-5l-3.3-1.6c-3.1-1.5-6.7,0.7-6.7,4.1v0C101.4,12.1,105,14.3,108.1,12.8z" fill="#7E827E"/></g><g opacity="0.4"><path d="M108.1,12.8l3.3-1.6v-5l-3.3-1.6c-3.1-1.5-6.7,0.7-6.7,4.1v0C101.4,12.1,105,14.3,108.1,12.8z" fill="#030505"/></g><g><path d="M106,14.5L106,14.5c-3.2,0-5.9-2.6-5.9-5.9s2.6-5.9,5.9-5.9c0.9,0,1.8,0.2,2.6,0.6l4,2v6.5l-4,2    C107.8,14.3,106.9,14.5,106,14.5z M106,5.2c-1.6,0-3.4,1.3-3.4,3.4s1.8,3.4,3.4,3.4l0,0c0.5,0,1-0.1,1.5-0.4l2.6-1.3V6.9l-2.6-1.3    C107.1,5.4,106.6,5.2,106,5.2z" fill="#222D2B"/></g><g><path d="M110.9,65.4c-1.1-1.5-3.3-1.7-4.9-0.7c-4.3,2.8-9.3,4.3-14.5,4.3c-5.1,0-10-1.4-14.3-4.2    c-1.6-1-3.7-0.8-4.9,0.7c-1.2,1.6-0.8,3.9,0.9,5c3.4,2.2,7.1,3.7,11,4.6c2.3,0.5,3.9,2.5,3.9,4.9v12.6c0,1.7,1.1,3.2,2.8,3.5    c2.3,0.5,4.2-1.3,4.2-3.4V80c0-2.3,1.6-4.3,3.9-4.9c3.9-0.9,7.6-2.5,11-4.7C111.7,69.3,112.1,67,110.9,65.4z" fill="#474B4A"/></g><g><path d="M91.6,97.5L91.6,97.5c-0.3,0-0.7,0-1-0.1c-2.2-0.4-3.8-2.4-3.8-4.7V80.1c0-1.8-1.2-3.3-2.9-3.7    c-4.1-0.9-7.9-2.5-11.4-4.8c-1.1-0.7-1.9-1.9-2.1-3.1c-0.2-1.3,0.1-2.6,0.9-3.7c0.9-1.2,2.3-1.9,3.8-1.9c1,0,1.9,0.3,2.8,0.8    c4.1,2.6,8.8,4,13.6,4c4.9,0,9.7-1.4,13.8-4.1c0.8-0.5,1.8-0.8,2.8-0.8c1.5,0,2.9,0.7,3.8,1.8c0.8,1.1,1.1,2.4,0.9,3.7    c-0.2,1.3-1,2.4-2.1,3.2c-3.5,2.3-7.3,4-11.4,4.9c-1.7,0.4-2.9,1.9-2.9,3.6v12.7c0,1.3-0.5,2.5-1.4,3.4S92.9,97.5,91.6,97.5z     M75.1,65.5c-0.7,0-1.4,0.3-1.8,0.8c-0.4,0.5-0.5,1.1-0.4,1.7c0.1,0.6,0.5,1.1,1,1.5c3.2,2.1,6.8,3.6,10.6,4.4    c2.9,0.6,4.9,3.1,4.9,6.1v12.6c0,1.1,0.7,2.1,1.8,2.3c0.8,0.2,1.5-0.1,2.1-0.6c0.4-0.4,0.7-1,0.7-1.6V80c0-2.9,2-5.4,4.9-6.1    c3.8-0.9,7.4-2.4,10.6-4.5c0.5-0.3,0.9-0.9,1-1.5c0.1-0.6,0-1.2-0.4-1.7c-0.7-0.9-2.2-1.1-3.2-0.4c-4.5,3-9.8,4.5-15.2,4.5    c-5.3,0-10.5-1.5-15-4.4C76.1,65.6,75.6,65.5,75.1,65.5z" fill="#222D2B"/></g><g><circle cx="32.1" cy="48.6" fill="#C9CCCA" r="12.5"/></g><g><circle cx="32.1" cy="48.6" fill="#7E827E" r="7.5"/></g><g opacity="0.5"><path d="M32.1,36.1c-6.9,0-12.5,5.6-12.5,12.5c0,3.5,1.4,6.6,3.7,8.9L41,39.9C38.7,37.6,35.6,36.1,32.1,36.1z" fill="#FFFFFF"/></g><g><path d="M32.1,62.4c-7.6,0-13.8-6.2-13.8-13.8s6.2-13.8,13.8-13.8S45.8,41,45.8,48.6S39.6,62.4,32.1,62.4z     M32.1,37.4c-6.2,0-11.2,5-11.2,11.2s5,11.2,11.2,11.2s11.2-5,11.2-11.2S38.3,37.4,32.1,37.4z" fill="#222D2B"/></g><g><path d="M32.1,57.4c-4.8,0-8.8-3.9-8.8-8.8s3.9-8.8,8.8-8.8s8.8,3.9,8.8,8.8S36.9,57.4,32.1,57.4z M32.1,42.4    c-3.4,0-6.2,2.8-6.2,6.2s2.8,6.2,6.2,6.2s6.2-2.8,6.2-6.2S35.5,42.4,32.1,42.4z" fill="#222D2B"/></g></g></svg>